<svg width="18" height="18" viewBox="0 0 18 18" fill="none" xmlns="http://www.w3.org/2000/svg">
<mask id="mask0_2504_16885" style="mask-type:alpha" maskUnits="userSpaceOnUse" x="0" y="0" width="18" height="18">
<rect width="18" height="18" fill="#FF0000"/>
</mask>
<g mask="url(#mask0_2504_16885)">
<rect x="1.24902" y="5.53516" width="15.5" height="11.2143" rx="1.35204" fill="#8D8D8D" stroke="#151515" stroke-width="0.5"/>
<rect x="1.49902" y="5.78516" width="15" height="10.7143" rx="1.10204" fill="#8D8D8D"/>
<rect x="2.78516" y="1.5" width="12.3214" height="10.7143" rx="1.10204" fill="#D9D9D9" stroke="#151515"/>
<rect x="2.78516" y="1.5" width="12.3214" height="10.7143" rx="1.10204" fill="white"/>
<path d="M5.78516 4.71289H12.2137" stroke="#CCCCCC" stroke-width="1.5" stroke-linecap="round"/>
<path d="M5.78516 7.39062H8.99944" stroke="#CCCCCC" stroke-width="1.5" stroke-linecap="round"/>
<path d="M1.49902 6.85742L1.49902 15.3982C1.49902 16.0069 1.99242 16.5003 2.60106 16.5003L12.7468 16.5003C13.8467 16.5003 14.2679 15.066 13.3427 14.4712L1.49902 6.85742Z" fill="#4B5E7B"/>
<path d="M16.499 6.85742L16.499 15.3982C16.499 16.0069 16.0056 16.5003 15.397 16.5003L5.25127 16.5003C4.15138 16.5003 3.73012 15.066 4.65533 14.4712L16.499 6.85742Z" fill="#4B5E7B"/>
<path d="M2.56838 16.5H15.4302C16.4795 16.5 16.9351 15.1723 16.1068 14.5281L9.67589 9.52623C9.27793 9.21671 8.72067 9.21671 8.32272 9.52623L1.8918 14.5281C1.06352 15.1723 1.51907 16.5 2.56838 16.5Z" fill="#6380AB"/>
</g>
</svg>
